<svg width="1000" height="364" viewBox="0 0 1000 364" xmlns="http://www.w3.org/2000/svg" role="img" aria-label="A twenty four hour clock of a typical day: lectures, KDAG, research and backtests, Codeforces late at night, and six hours of sleep">
<style>
  .mono{font-family:ui-monospace,'SF Mono','Cascadia Code',Menlo,Consolas,monospace}
  .sans{font-family:ui-sans-serif,-apple-system,'Helvetica Neue','Segoe UI',Arial,sans-serif}
</style>
<defs><clipPath id="dFrame"><rect width="1000" height="364" rx="16"/></clipPath></defs>
<g clip-path="url(#dFrame)">
  <rect width="1000" height="364" fill="#0b0d10"/>
  <text x="44" y="40" class="mono" font-size="12" fill="#7d8794" letter-spacing="2.6">A DAY AT THE DESK</text>
  <text x="956" y="40" text-anchor="end" class="mono" font-size="11" fill="#4d5661" letter-spacing="1.4">IST · SUBJECT TO DEADLINES</text>
  <line x1="44" y1="56" x2="956" y2="56" stroke="#1c2128"/>
  <line x1="214.0" y1="87.0" x2="214.0" y2="80.0" stroke="#5f6875" stroke-width="1.4"/><text x="214.0" y="70.0" text-anchor="middle" class="mono" font-size="10" fill="#5f6875">00</text><line x1="243.8" y1="90.9" x2="244.8" y2="87.1" stroke="#242b34" stroke-width="1.4"/><line x1="271.5" y1="102.4" x2="273.5" y2="98.9" stroke="#242b34" stroke-width="1.4"/><line x1="295.3" y1="120.7" x2="298.1" y2="117.9" stroke="#242b34" stroke-width="1.4"/><line x1="313.6" y1="144.5" x2="317.1" y2="142.5" stroke="#242b34" stroke-width="1.4"/><line x1="325.1" y1="172.2" x2="328.9" y2="171.2" stroke="#242b34" stroke-width="1.4"/><line x1="329.0" y1="202.0" x2="336.0" y2="202.0" stroke="#5f6875" stroke-width="1.4"/><text x="350.0" y="206.0" text-anchor="middle" class="mono" font-size="10" fill="#5f6875">06</text><line x1="325.1" y1="231.8" x2="328.9" y2="232.8" stroke="#242b34" stroke-width="1.4"/><line x1="313.6" y1="259.5" x2="317.1" y2="261.5" stroke="#242b34" stroke-width="1.4"/><line x1="295.3" y1="283.3" x2="298.1" y2="286.1" stroke="#242b34" stroke-width="1.4"/><line x1="271.5" y1="301.6" x2="273.5" y2="305.1" stroke="#242b34" stroke-width="1.4"/><line x1="243.8" y1="313.1" x2="244.8" y2="316.9" stroke="#242b34" stroke-width="1.4"/><line x1="214.0" y1="317.0" x2="214.0" y2="324.0" stroke="#5f6875" stroke-width="1.4"/><text x="214.0" y="342.0" text-anchor="middle" class="mono" font-size="10" fill="#5f6875">12</text><line x1="184.2" y1="313.1" x2="183.2" y2="316.9" stroke="#242b34" stroke-width="1.4"/><line x1="156.5" y1="301.6" x2="154.5" y2="305.1" stroke="#242b34" stroke-width="1.4"/><line x1="132.7" y1="283.3" x2="129.9" y2="286.1" stroke="#242b34" stroke-width="1.4"/><line x1="114.4" y1="259.5" x2="110.9" y2="261.5" stroke="#242b34" stroke-width="1.4"/><line x1="102.9" y1="231.8" x2="99.1" y2="232.8" stroke="#242b34" stroke-width="1.4"/><line x1="99.0" y1="202.0" x2="92.0" y2="202.0" stroke="#5f6875" stroke-width="1.4"/><text x="78.0" y="206.0" text-anchor="middle" class="mono" font-size="10" fill="#5f6875">18</text><line x1="102.9" y1="172.2" x2="99.1" y2="171.2" stroke="#242b34" stroke-width="1.4"/><line x1="114.4" y1="144.5" x2="110.9" y2="142.5" stroke="#242b34" stroke-width="1.4"/><line x1="132.7" y1="120.7" x2="129.9" y2="117.9" stroke="#242b34" stroke-width="1.4"/><line x1="156.5" y1="102.4" x2="154.5" y2="98.9" stroke="#242b34" stroke-width="1.4"/><line x1="184.2" y1="90.9" x2="183.2" y2="87.1" stroke="#242b34" stroke-width="1.4"/>
  <circle cx="214" cy="202" r="94" fill="none" stroke="#141920" stroke-width="32"/>
  <circle cx="214" cy="202" r="94" fill="none" stroke="#e2857f" stroke-width="32"
    stroke-dasharray="0 590.62" stroke-dashoffset="-0.00" transform="rotate(-90 214 202)">
    <animate attributeName="stroke-dasharray" values="0 590.62;49.22 541.40" begin="0.30s" dur="0.85s" fill="freeze"/></circle><circle cx="214" cy="202" r="94" fill="none" stroke="#3b4250" stroke-width="32"
    stroke-dasharray="0 590.62" stroke-dashoffset="-49.22" transform="rotate(-90 214 202)">
    <animate attributeName="stroke-dasharray" values="0 590.62;147.65 442.96" begin="0.45s" dur="0.85s" fill="freeze"/></circle><circle cx="214" cy="202" r="94" fill="none" stroke="#7fb8f0" stroke-width="32"
    stroke-dasharray="0 590.62" stroke-dashoffset="-196.87" transform="rotate(-90 214 202)">
    <animate attributeName="stroke-dasharray" values="0 590.62;123.05 467.57" begin="0.60s" dur="0.85s" fill="freeze"/></circle><circle cx="214" cy="202" r="94" fill="none" stroke="#e8d07a" stroke-width="32"
    stroke-dasharray="0 590.62" stroke-dashoffset="-319.92" transform="rotate(-90 214 202)">
    <animate attributeName="stroke-dasharray" values="0 590.62;24.61 566.01" begin="0.75s" dur="0.85s" fill="freeze"/></circle><circle cx="214" cy="202" r="94" fill="none" stroke="#79d4a7" stroke-width="32"
    stroke-dasharray="0 590.62" stroke-dashoffset="-344.53" transform="rotate(-90 214 202)">
    <animate attributeName="stroke-dasharray" values="0 590.62;73.83 516.79" begin="0.90s" dur="0.85s" fill="freeze"/></circle><circle cx="214" cy="202" r="94" fill="none" stroke="#b89bf0" stroke-width="32"
    stroke-dasharray="0 590.62" stroke-dashoffset="-418.36" transform="rotate(-90 214 202)">
    <animate attributeName="stroke-dasharray" values="0 590.62;49.22 541.40" begin="1.05s" dur="0.85s" fill="freeze"/></circle><circle cx="214" cy="202" r="94" fill="none" stroke="#e0b170" stroke-width="32"
    stroke-dasharray="0 590.62" stroke-dashoffset="-467.57" transform="rotate(-90 214 202)">
    <animate attributeName="stroke-dasharray" values="0 590.62;123.05 467.57" begin="1.20s" dur="0.85s" fill="freeze"/></circle>
  <text x="214" y="200" text-anchor="middle" class="sans" font-size="30" font-weight="700" fill="#f0eae0">24h</text>
  <text x="214" y="222" text-anchor="middle" class="mono" font-size="10" fill="#5f6875" letter-spacing="1.4">ROUGHLY</text>
  <g opacity="0"><animate attributeName="opacity" values="0;1" begin="1.00s" dur="0.5s" fill="freeze"/>
  <rect x="430" y="89" width="12" height="12" rx="3" fill="#e2857f"/>
  <text x="452" y="100" class="sans" font-size="14.5" fill="#e8e2d8">Codeforces, late problems</text>
  <text x="884" y="100" text-anchor="end" class="mono" font-size="12" fill="#5f6875">00:00</text>
  <text x="956" y="100" text-anchor="end" class="mono" font-size="12.5" fill="#e2857f">2h</text></g><g opacity="0"><animate attributeName="opacity" values="0;1" begin="1.10s" dur="0.5s" fill="freeze"/>
  <rect x="430" y="123" width="12" height="12" rx="3" fill="#3b4250"/>
  <text x="452" y="134" class="sans" font-size="14.5" fill="#e8e2d8">Sleep, allegedly</text>
  <text x="884" y="134" text-anchor="end" class="mono" font-size="12" fill="#5f6875">02:00</text>
  <text x="956" y="134" text-anchor="end" class="mono" font-size="12.5" fill="#3b4250">6h</text></g><g opacity="0"><animate attributeName="opacity" values="0;1" begin="1.20s" dur="0.5s" fill="freeze"/>
  <rect x="430" y="157" width="12" height="12" rx="3" fill="#7fb8f0"/>
  <text x="452" y="168" class="sans" font-size="14.5" fill="#e8e2d8">Lectures and labs</text>
  <text x="884" y="168" text-anchor="end" class="mono" font-size="12" fill="#5f6875">08:00</text>
  <text x="956" y="168" text-anchor="end" class="mono" font-size="12.5" fill="#7fb8f0">5h</text></g><g opacity="0"><animate attributeName="opacity" values="0;1" begin="1.30s" dur="0.5s" fill="freeze"/>
  <rect x="430" y="191" width="12" height="12" rx="3" fill="#e8d07a"/>
  <text x="452" y="202" class="sans" font-size="14.5" fill="#e8e2d8">Mess, chai, walking</text>
  <text x="884" y="202" text-anchor="end" class="mono" font-size="12" fill="#5f6875">13:00</text>
  <text x="956" y="202" text-anchor="end" class="mono" font-size="12.5" fill="#e8d07a">1h</text></g><g opacity="0"><animate attributeName="opacity" values="0;1" begin="1.40s" dur="0.5s" fill="freeze"/>
  <rect x="430" y="225" width="12" height="12" rx="3" fill="#79d4a7"/>
  <text x="452" y="236" class="sans" font-size="14.5" fill="#e8e2d8">KDAG and projects</text>
  <text x="884" y="236" text-anchor="end" class="mono" font-size="12" fill="#5f6875">14:00</text>
  <text x="956" y="236" text-anchor="end" class="mono" font-size="12.5" fill="#79d4a7">3h</text></g><g opacity="0"><animate attributeName="opacity" values="0;1" begin="1.50s" dur="0.5s" fill="freeze"/>
  <rect x="430" y="259" width="12" height="12" rx="3" fill="#b89bf0"/>
  <text x="452" y="270" class="sans" font-size="14.5" fill="#e8e2d8">Gym, music, offline</text>
  <text x="884" y="270" text-anchor="end" class="mono" font-size="12" fill="#5f6875">17:00</text>
  <text x="956" y="270" text-anchor="end" class="mono" font-size="12.5" fill="#b89bf0">2h</text></g><g opacity="0"><animate attributeName="opacity" values="0;1" begin="1.60s" dur="0.5s" fill="freeze"/>
  <rect x="430" y="293" width="12" height="12" rx="3" fill="#e0b170"/>
  <text x="452" y="304" class="sans" font-size="14.5" fill="#e8e2d8">Research and backtests</text>
  <text x="884" y="304" text-anchor="end" class="mono" font-size="12" fill="#5f6875">19:00</text>
  <text x="956" y="304" text-anchor="end" class="mono" font-size="12.5" fill="#e0b170">5h</text></g>
</g>
<rect x="0.5" y="0.5" width="999" height="363" rx="16" fill="none" stroke="#1c2128"/>
</svg>